<?xml version="1.0" encoding="UTF-8"?>
<svg id="e" data-name="Layer 1" xmlns="http://www.w3.org/2000/svg" width="155.0334" height="129.5001" xmlns:xlink="http://www.w3.org/1999/xlink" viewBox="0 0 155.0334 129.5001">
  <defs>
    <symbol id="a" data-name="Circles" viewBox="0 0 56.8716 68.1828">
      <g>
        <path d="M29.8836,20.5576c10.0468,0,18.1904,8.1411,18.1904,18.1855s-8.1436,18.1861-18.1904,18.1861V20.5576Z" style="fill: none; stroke: #fbd437; stroke-width: .6777px;"/>
        <path d="M29.8845,14.1352c-13.352,0-24.1777,10.8228-24.1777,24.1704s10.8257,24.1719,24.1777,24.1719V14.1352Z" style="fill: none; stroke: #fbd437; stroke-width: .1694px;"/>
        <path d="M29.8845,8.5146C13.4265,8.5146,.0847,21.8515,.0847,38.3056s13.3418,29.7925,29.7998,29.7925V8.5146Z" style="fill: none; stroke: #231f20; stroke-width: .1694px;"/>
        <g>
          <path d="M29.8836,56.4155c-9.7622,0-17.6758-7.9106-17.6758-17.6724s7.9136-17.6718,17.6758-17.6718v-3.774c-11.8467,0-21.4512,9.6026-21.4512,21.4458s9.6045,21.4463,21.4512,21.4463v-3.7739Z" style="fill: #d4392a;"/>
          <path d="M51.3347,38.7431c0,11.8457-9.6035,21.4463-21.4511,21.4463s-21.4512-9.6006-21.4512-21.4463,9.6045-21.4458,21.4512-21.4458,21.4511,9.6026,21.4511,21.4458Z" style="fill: none; stroke: #d4392a; stroke-width: 1.3554px;"/>
          <g>
            <line x1="29.8836" y1="4.3784" x2="29.8836" y2="59.5659" style="fill: none; stroke: #231f20; stroke-width: .6777px;"/>
            <g>
              <polygon points="32.1385 7.7632 29.8836 5.0903 27.6297 7.7632 29.8836 0 32.1385 7.7632" style="fill: #231f20;"/>
              <polygon points="31.4832 6.6631 29.8836 .854 29.8836 4.6816 31.4832 6.6631" style="fill: #fff;"/>
            </g>
          </g>
          <line x1="51.3347" y1="38.7431" x2="3.346" y2="38.7431" style="fill: none; stroke: #d4392a; stroke-width: .6777px;"/>
          <path d="M41.5535,38.7431c0,6.4439-5.2246,11.667-11.6699,11.667s-11.669-5.2231-11.669-11.667,5.2241-11.6675,11.669-11.6675,11.6699,5.2246,11.6699,11.6675Z" style="fill: none; stroke: #231f20; stroke-width: .1694px;"/>
          <path d="M40.1424,38.7431c0,5.6656-4.5938,10.2569-10.2588,10.2569s-10.2578-4.5913-10.2578-10.2569,4.5928-10.2544,10.2578-10.2544,10.2588,4.5903,10.2588,10.2544Z" style="fill: none; stroke: #fbd437; stroke-width: .1489px;"/>
          <path d="M38.9011,38.7431c0,4.979-4.0361,9.0157-9.0175,9.0157s-9.0181-4.0367-9.0181-9.0157,4.0376-9.0151,9.0181-9.0151,9.0175,4.0366,9.0175,9.0151Z" style="fill: none; stroke: #231f20; stroke-width: .1309px;"/>
          <path d="M37.8103,38.7431c0,4.3774-3.5478,7.9258-7.9268,7.9258s-7.9277-3.5483-7.9277-7.9258c0-4.375,3.5498-7.9243,7.9277-7.9243s7.9268,3.5493,7.9268,7.9243Z" style="fill: none; stroke: #fbd437; stroke-width: .1151px;"/>
          <path d="M36.8513,38.7431c0,3.8482-3.1182,6.9683-6.9678,6.9683s-6.9683-3.1201-6.9683-6.9683,3.1196-6.9663,6.9683-6.9663,6.9678,3.1186,6.9678,6.9663Z" style="fill: none; stroke: #231f20; stroke-width: .1012px;"/>
          <path d="M35.2693,38.7431c0,2.9732-2.4111,5.3843-5.3857,5.3843s-5.3853-2.4111-5.3853-5.3843,2.4107-5.3828,5.3853-5.3828,5.3857,2.4111,5.3857,5.3828Z" style="fill: none; stroke: #fbd437; stroke-width: .0782px;"/>
          <path d="M34.0447,38.7431c0,2.2983-1.8613,4.1616-4.1611,4.1616s-4.1616-1.8633-4.1616-4.1616c0-2.2969,1.8628-4.1602,4.1616-4.1602s4.1611,1.8633,4.1611,4.1602Z" style="fill: none; stroke: #231f20; stroke-width: .0604px;"/>
          <path d="M33.0994,38.7431c0,1.7769-1.4395,3.2153-3.2158,3.2153-1.7754,0-3.2163-1.4385-3.2163-3.2153,0-1.7754,1.4409-3.2129,3.2163-3.2129,1.7764,0,3.2158,1.4375,3.2158,3.2129Z" style="fill: none; stroke: #fbd437; stroke-width: .0467px;"/>
          <path d="M32.3689,38.7431c0,1.3745-1.1123,2.4858-2.4853,2.4858s-2.4844-1.1113-2.4844-2.4858c0-1.3701,1.1113-2.4844,2.4844-2.4844s2.4853,1.1143,2.4853,2.4844Z" style="fill: none; stroke: #231f20; stroke-width: .0361px;"/>
          <path d="M31.8045,38.7431c0,1.0601-.8603,1.9194-1.9209,1.9194s-1.9199-.8594-1.9199-1.9194,.8594-1.918,1.9199-1.918,1.9209,.8574,1.9209,1.918Z" style="fill: none; stroke: #fbd437; stroke-width: .0279px;"/>
          <path d="M31.3689,38.7431c0,.8203-.665,1.4839-1.4853,1.4839-.8193,0-1.4844-.6636-1.4844-1.4839,0-.8193,.665-1.4824,1.4844-1.4824,.8203,0,1.4853,.6631,1.4853,1.4824Z" style="fill: none; stroke: #231f20; stroke-width: .0215px;"/>
          <path d="M31.0291,38.7431c0,.6348-.5127,1.146-1.1455,1.146-.6338,0-1.1465-.5112-1.1465-1.146,0-.6328,.5127-1.1465,1.1465-1.1465,.6328,0,1.1455,.5137,1.1455,1.1465Z" style="fill: none; stroke: #fbd437; stroke-width: .0167px;"/>
          <path d="M30.7683,38.7431c0,.4902-.3955,.8862-.8848,.8862-.4883,0-.8867-.396-.8867-.8862,0-.4892,.3984-.8867,.8867-.8867,.4893,0,.8848,.3975,.8848,.8867Z" style="fill: none; stroke: #231f20; stroke-width: .0129px;"/>
          <path d="M30.5681,38.7431c0,.3779-.3057,.6856-.6846,.6856s-.6856-.3076-.6856-.6856,.3066-.6846,.6856-.6846,.6846,.3066,.6846,.6846Z" style="fill: none; stroke: #7dab38; stroke-width: .0099px;"/>
          <g>
            <path d="M11.0379,57.5854c-10.4073-10.4057-10.4073-27.2754,.0009-37.6831,10.4078-10.4053,27.2813-10.4053,37.6885,0,10.4072,10.4058,10.4072,27.2754,0,37.6812-10.4082,10.4062-27.2822,10.4062-37.6894,.0019Z" style="fill: none; stroke: #231f20; stroke-width: .6777px;"/>
            <g>
              <polygon points="52.7146 56.7846 49.2312 57.0801 49.5271 53.5962 45.6306 60.6792 52.7146 56.7846" style="fill: #231f20;"/>
              <polygon points="51.4744 57.0996 46.2351 60.0752 48.9412 57.3691 51.4744 57.0996" style="fill: #fff;"/>
            </g>
            <g>
              <polygon points="10.2385 53.5981 10.5344 57.082 7.0506 56.7866 14.1341 60.6811 10.2385 53.5981" style="fill: #231f20;"/>
              <polygon points="10.5535 54.8388 13.53 60.0771 10.8235 57.3711 10.5535 54.8388" style="fill: #fff;"/>
            </g>
          </g>
        </g>
      </g>
    </symbol>
    <radialGradient id="c" cx="52.7826" cy="33.1727" fx="52.7826" fy="33.1727" r="55.0789" gradientTransform="translate(-.5674 -.7925)" gradientUnits="userSpaceOnUse">
      <stop offset="0" stop-color="#fff"/>
      <stop offset=".0612" stop-color="#e7e3f0"/>
      <stop offset=".1768" stop-color="#c0b6d8"/>
      <stop offset=".2972" stop-color="#9e90c4"/>
      <stop offset=".4209" stop-color="#8370b3"/>
      <stop offset=".5489" stop-color="#6d58a6"/>
      <stop offset=".683" stop-color="#5e469d"/>
      <stop offset=".8273" stop-color="#553c97"/>
      <stop offset="1" stop-color="#533996"/>
    </radialGradient>
    <radialGradient id="d" cx="52.7846" cy="33.1739" fx="52.7846" fy="33.1739" r="55.0756" xlink:href="#c"/>
    <symbol id="b" data-name="Planet" viewBox="0 0 98.5679 87.6962">
      <g>
        <g>
          <path d="M23.0401,55.3061c4.0234,9.1358,13.1518,15.5191,23.7744,15.5191,14.3481,0,25.979-11.627,25.979-25.9771,0-6.5728-2.4473-12.5713-6.4727-17.1479" style="fill: url(#c);"/>
          <path d="M92.1548,15.7426c-3.001-4.8237-25.9863,4.0669-51.3506,19.8448C15.4488,51.372-2.6772,68.0732,.3252,72.895c3.001,4.8178,25.9903-4.063,51.3462-19.8526,25.3584-15.7788,43.4854-32.4809,40.4834-37.2998ZM49.935,50.2568c-17.2578,10.7432-32.9033,16.793-34.9463,13.5112-2.0435-3.2827,10.2959-14.6509,27.5532-25.3921,17.2593-10.7382,32.9068-16.7905,34.9478-13.5102,2.0449,3.2837-10.291,14.6499-27.5547,25.3911Z" style="fill: #ee7a5f;"/>
          <path d="M87.7222,18.3222c-2.5479-4.104-23.2275,4.1538-46.1856,18.4414C18.5816,51.0517,2.043,65.9555,4.5957,70.0556c2.5537,4.103,23.229-4.1538,46.1851-18.438,22.956-14.2886,39.498-29.1943,36.9414-33.2954ZM50.5474,51.2421c-21.8311,13.5845-41.4614,21.4996-43.8423,17.6788-2.3794-3.8287,13.3872-17.9463,35.2202-31.5323,21.8369-13.5893,41.4658-21.5044,43.8467-17.6758,2.3789,3.8228-13.3877,17.9375-35.2246,31.5293Z" style="fill: #f9da97;"/>
          <path d="M66.3208,27.7002c-4.7588-5.4107-11.7314-8.8292-19.5063-8.8292-14.3423,0-25.9722,11.6299-25.9722,25.9771,0,3.7202,.7866,7.2549,2.1978,10.458" style="fill: url(#d);"/>
        </g>
        <polygon points="91.4029 26.8837 94.1167 30.6816 98.5679 29.2724 95.7954 33.0288 98.5103 36.8271 94.0806 35.3491 91.3081 39.1054 91.3433 34.437 86.9136 32.9614 91.3658 31.5522 91.4029 26.8837" style="fill: #fbd437;"/>
        <polygon points="54.3804 0 55.0229 4.6235 59.6197 5.4418 55.4214 7.4814 56.064 12.1069 52.8257 8.7431 48.6284 10.7841 50.8237 6.665 47.5859 3.3032 52.1821 4.1196 54.3804 0" style="fill: #fbd437;"/>
        <polygon points="29.3428 75.9624 30.918 80.3574 35.5855 80.2168 31.8931 83.0727 33.4693 87.4677 29.6104 84.8383 25.919 87.6962 27.2256 83.2143 23.3672 80.5849 28.0347 80.4443 29.3428 75.9624" style="fill: #fbd437;"/>
      </g>
    </symbol>
  </defs>
  <use width="56.8716" height="68.1828" transform="translate(155.0334 -.109) rotate(90) scale(2.2866 2.2754)" xlink:href="#a"/>
  <use width="98.5679" height="87.6962" transform="translate(8.717 13.4091) scale(1.234 1.2454)" xlink:href="#b"/>
</svg>